<mxfile host="app.diagrams.net" modified="2024-05-19T11:22:01.324Z" agent="Mozilla/5.0 (Windows NT 10.0; Win64; x64) AppleWebKit/537.36 (KHTML, like Gecko) Chrome/124.0.0.0 Safari/537.36" etag="_HdmXImnPPTvCHLoZ_6Y" version="24.4.4" type="device">
  <diagram name="Page-1" id="Gg-rco-t22GeGNQvE8Wa">
    <mxGraphModel dx="1963" dy="782" grid="1" gridSize="10" guides="1" tooltips="1" connect="1" arrows="1" fold="1" page="1" pageScale="1" pageWidth="827" pageHeight="1169" math="0" shadow="0">
      <root>
        <mxCell id="0" />
        <mxCell id="1" parent="0" />
        <mxCell id="8B506kMxZRcGOJMvA6GP-1" value="" style="ellipse;html=1;fillColor=#000000;" parent="1" vertex="1">
          <mxGeometry x="360" y="15" width="30" height="30" as="geometry" />
        </mxCell>
        <mxCell id="8B506kMxZRcGOJMvA6GP-2" value="" style="endArrow=open;html=1;rounded=0;align=center;verticalAlign=top;endFill=0;labelBackgroundColor=none;endSize=6;entryX=0.5;entryY=0;entryDx=0;entryDy=0;entryPerimeter=0;" parent="1" source="8B506kMxZRcGOJMvA6GP-1" target="8B506kMxZRcGOJMvA6GP-3" edge="1">
          <mxGeometry relative="1" as="geometry">
            <mxPoint x="445" y="75" as="targetPoint" />
          </mxGeometry>
        </mxCell>
        <mxCell id="8B506kMxZRcGOJMvA6GP-3" value="&lt;font style=&quot;font-size: 9px;&quot;&gt;Robot setup&lt;/font&gt;" style="points=[[0.25,0,0],[0.5,0,0],[0.75,0,0],[1,0.25,0],[1,0.5,0],[1,0.75,0],[0.75,1,0],[0.5,1,0],[0.25,1,0],[0,0.75,0],[0,0.5,0],[0,0.25,0]];shape=mxgraph.bpmn.task;whiteSpace=wrap;rectStyle=rounded;size=10;html=1;container=1;expand=0;collapsible=0;bpmnShapeType=call;" parent="1" vertex="1">
          <mxGeometry x="335" y="76" width="80" height="60" as="geometry" />
        </mxCell>
        <mxCell id="8B506kMxZRcGOJMvA6GP-4" value="&lt;font style=&quot;font-size: 9px;&quot;&gt;Active camera sensors&lt;/font&gt;" style="points=[[0.25,0,0],[0.5,0,0],[0.75,0,0],[1,0.25,0],[1,0.5,0],[1,0.75,0],[0.75,1,0],[0.5,1,0],[0.25,1,0],[0,0.75,0],[0,0.5,0],[0,0.25,0]];shape=mxgraph.bpmn.task;whiteSpace=wrap;rectStyle=rounded;size=10;html=1;container=1;expand=0;collapsible=0;bpmnShapeType=call;" parent="1" vertex="1">
          <mxGeometry x="313" y="260" width="125" height="60" as="geometry" />
        </mxCell>
        <mxCell id="8B506kMxZRcGOJMvA6GP-6" value="&lt;font style=&quot;font-size: 9px;&quot;&gt;Get task&lt;/font&gt;" style="points=[[0.25,0,0],[0.5,0,0],[0.75,0,0],[1,0.25,0],[1,0.5,0],[1,0.75,0],[0.75,1,0],[0.5,1,0],[0.25,1,0],[0,0.75,0],[0,0.5,0],[0,0.25,0]];shape=mxgraph.bpmn.task;whiteSpace=wrap;rectStyle=rounded;size=10;html=1;container=1;expand=0;collapsible=0;bpmnShapeType=call;" parent="1" vertex="1">
          <mxGeometry x="335" y="157" width="80" height="60" as="geometry" />
        </mxCell>
        <mxCell id="8B506kMxZRcGOJMvA6GP-8" value="" style="endArrow=classic;html=1;rounded=0;entryX=0.5;entryY=0;entryDx=0;entryDy=0;entryPerimeter=0;exitX=0.5;exitY=1;exitDx=0;exitDy=0;exitPerimeter=0;" parent="1" source="8B506kMxZRcGOJMvA6GP-3" target="8B506kMxZRcGOJMvA6GP-6" edge="1">
          <mxGeometry width="50" height="50" relative="1" as="geometry">
            <mxPoint x="385" y="320" as="sourcePoint" />
            <mxPoint x="435" y="270" as="targetPoint" />
          </mxGeometry>
        </mxCell>
        <mxCell id="8B506kMxZRcGOJMvA6GP-10" value="" style="endArrow=classic;html=1;rounded=0;exitX=0.5;exitY=1;exitDx=0;exitDy=0;exitPerimeter=0;entryX=0.5;entryY=0;entryDx=0;entryDy=0;entryPerimeter=0;" parent="1" source="8B506kMxZRcGOJMvA6GP-6" target="8B506kMxZRcGOJMvA6GP-4" edge="1">
          <mxGeometry width="50" height="50" relative="1" as="geometry">
            <mxPoint x="385" y="260" as="sourcePoint" />
            <mxPoint x="435" y="210" as="targetPoint" />
            <Array as="points" />
          </mxGeometry>
        </mxCell>
        <mxCell id="8B506kMxZRcGOJMvA6GP-12" value="" style="endArrow=classic;html=1;rounded=0;exitX=0.5;exitY=1;exitDx=0;exitDy=0;exitPerimeter=0;entryX=0.5;entryY=0;entryDx=0;entryDy=0;entryPerimeter=0;" parent="1" source="8B506kMxZRcGOJMvA6GP-4" target="vmy5R8h8QKJuN6lwiHQ0-5" edge="1">
          <mxGeometry width="50" height="50" relative="1" as="geometry">
            <mxPoint x="385" y="486" as="sourcePoint" />
            <mxPoint x="375.5" y="390" as="targetPoint" />
          </mxGeometry>
        </mxCell>
        <mxCell id="8B506kMxZRcGOJMvA6GP-13" value="&lt;font style=&quot;font-size: 9px;&quot;&gt;House&lt;/font&gt;&lt;font style=&quot;font-size: 9px;&quot;&gt; Cleaning&lt;/font&gt;" style="points=[[0.25,0,0],[0.5,0,0],[0.75,0,0],[1,0.25,0],[1,0.5,0],[1,0.75,0],[0.75,1,0],[0.5,1,0],[0.25,1,0],[0,0.75,0],[0,0.5,0],[0,0.25,0]];shape=mxgraph.bpmn.task;whiteSpace=wrap;rectStyle=rounded;size=10;html=1;container=1;expand=0;collapsible=0;bpmnShapeType=call;" parent="1" vertex="1">
          <mxGeometry x="186" y="486" width="95" height="60" as="geometry" />
        </mxCell>
        <mxCell id="8B506kMxZRcGOJMvA6GP-17" value="" style="endArrow=classic;html=1;rounded=0;exitX=0;exitY=0.5;exitDx=0;exitDy=0;exitPerimeter=0;entryX=0.25;entryY=0;entryDx=0;entryDy=0;entryPerimeter=0;edgeStyle=orthogonalEdgeStyle;" parent="1" source="vmy5R8h8QKJuN6lwiHQ0-5" target="8B506kMxZRcGOJMvA6GP-13" edge="1">
          <mxGeometry width="50" height="50" relative="1" as="geometry">
            <mxPoint x="337" y="516" as="sourcePoint" />
            <mxPoint x="435" y="530" as="targetPoint" />
          </mxGeometry>
        </mxCell>
        <mxCell id="8B506kMxZRcGOJMvA6GP-86" value="&lt;font style=&quot;font-size: 6px;&quot;&gt;cleaning&lt;/font&gt;" style="edgeLabel;html=1;align=center;verticalAlign=middle;resizable=0;points=[];" parent="8B506kMxZRcGOJMvA6GP-17" vertex="1" connectable="0">
          <mxGeometry x="-0.1873" y="2" relative="1" as="geometry">
            <mxPoint x="-25" y="-11" as="offset" />
          </mxGeometry>
        </mxCell>
        <mxCell id="8B506kMxZRcGOJMvA6GP-21" value="" style="endArrow=classic;html=1;rounded=0;exitX=1;exitY=0.5;exitDx=0;exitDy=0;exitPerimeter=0;entryX=0.5;entryY=0;entryDx=0;entryDy=0;entryPerimeter=0;edgeStyle=orthogonalEdgeStyle;" parent="1" source="vmy5R8h8QKJuN6lwiHQ0-5" target="8B506kMxZRcGOJMvA6GP-120" edge="1">
          <mxGeometry width="50" height="50" relative="1" as="geometry">
            <mxPoint x="417" y="516" as="sourcePoint" />
            <mxPoint x="485" y="440" as="targetPoint" />
          </mxGeometry>
        </mxCell>
        <mxCell id="8B506kMxZRcGOJMvA6GP-87" value="&lt;font style=&quot;font-size: 6px;&quot;&gt;cooking&lt;/font&gt;" style="edgeLabel;html=1;align=center;verticalAlign=middle;resizable=0;points=[];" parent="8B506kMxZRcGOJMvA6GP-21" vertex="1" connectable="0">
          <mxGeometry x="-0.198" y="-1" relative="1" as="geometry">
            <mxPoint x="74" y="13" as="offset" />
          </mxGeometry>
        </mxCell>
        <mxCell id="8B506kMxZRcGOJMvA6GP-24" value="" style="endArrow=classic;html=1;rounded=0;exitX=0.5;exitY=1;exitDx=0;exitDy=0;exitPerimeter=0;entryX=0.5;entryY=0;entryDx=0;entryDy=0;" parent="1" source="8B506kMxZRcGOJMvA6GP-13" target="8B506kMxZRcGOJMvA6GP-26" edge="1">
          <mxGeometry width="50" height="50" relative="1" as="geometry">
            <mxPoint x="385" y="710" as="sourcePoint" />
            <mxPoint x="435" y="660" as="targetPoint" />
          </mxGeometry>
        </mxCell>
        <mxCell id="8B506kMxZRcGOJMvA6GP-27" value="&lt;font style=&quot;font-size: 6px;&quot;&gt;detect&amp;nbsp;a&amp;nbsp;&lt;/font&gt;&lt;span style=&quot;font-size: 6px;&quot;&gt;fragile object&lt;/span&gt;" style="edgeLabel;html=1;align=center;verticalAlign=middle;resizable=0;points=[];" parent="8B506kMxZRcGOJMvA6GP-24" vertex="1" connectable="0">
          <mxGeometry x="-0.3951" y="-2" relative="1" as="geometry">
            <mxPoint x="-45" y="1" as="offset" />
          </mxGeometry>
        </mxCell>
        <mxCell id="8B506kMxZRcGOJMvA6GP-26" value="" style="rhombus;whiteSpace=wrap;html=1;" parent="1" vertex="1">
          <mxGeometry x="214" y="601" width="40" height="20" as="geometry" />
        </mxCell>
        <mxCell id="8B506kMxZRcGOJMvA6GP-28" value="" style="endArrow=classic;html=1;rounded=0;exitX=0;exitY=0.5;exitDx=0;exitDy=0;entryX=0;entryY=0.75;entryDx=0;entryDy=0;entryPerimeter=0;" parent="1" source="8B506kMxZRcGOJMvA6GP-26" target="8B506kMxZRcGOJMvA6GP-13" edge="1">
          <mxGeometry width="50" height="50" relative="1" as="geometry">
            <mxPoint x="385" y="710" as="sourcePoint" />
            <mxPoint x="115" y="660" as="targetPoint" />
            <Array as="points">
              <mxPoint x="120" y="610" />
              <mxPoint x="120" y="531" />
            </Array>
          </mxGeometry>
        </mxCell>
        <mxCell id="8B506kMxZRcGOJMvA6GP-30" value="No" style="edgeLabel;html=1;align=center;verticalAlign=middle;resizable=0;points=[];" parent="8B506kMxZRcGOJMvA6GP-28" vertex="1" connectable="0">
          <mxGeometry x="-0.2676" y="-1" relative="1" as="geometry">
            <mxPoint x="49" y="-5" as="offset" />
          </mxGeometry>
        </mxCell>
        <mxCell id="8B506kMxZRcGOJMvA6GP-29" value="" style="endArrow=classic;html=1;rounded=0;exitX=0.5;exitY=1;exitDx=0;exitDy=0;" parent="1" source="8B506kMxZRcGOJMvA6GP-26" target="8B506kMxZRcGOJMvA6GP-46" edge="1">
          <mxGeometry width="50" height="50" relative="1" as="geometry">
            <mxPoint x="385" y="710" as="sourcePoint" />
            <mxPoint x="235" y="690" as="targetPoint" />
          </mxGeometry>
        </mxCell>
        <mxCell id="8B506kMxZRcGOJMvA6GP-34" value="Yes" style="edgeLabel;html=1;align=center;verticalAlign=middle;resizable=0;points=[];" parent="8B506kMxZRcGOJMvA6GP-29" vertex="1" connectable="0">
          <mxGeometry x="-0.1725" y="-4" relative="1" as="geometry">
            <mxPoint x="14" y="-25" as="offset" />
          </mxGeometry>
        </mxCell>
        <mxCell id="8B506kMxZRcGOJMvA6GP-46" value="" style="line;strokeWidth=4;html=1;perimeter=backbonePerimeter;points=[];outlineConnect=0;" parent="1" vertex="1">
          <mxGeometry x="155" y="700" width="160" height="10" as="geometry" />
        </mxCell>
        <mxCell id="8B506kMxZRcGOJMvA6GP-47" value="&lt;font style=&quot;font-size: 9px;&quot;&gt;Change cleaning&lt;/font&gt;&lt;font style=&quot;font-size: 9px;&quot;&gt; plan&lt;/font&gt;" style="points=[[0.25,0,0],[0.5,0,0],[0.75,0,0],[1,0.25,0],[1,0.5,0],[1,0.75,0],[0.75,1,0],[0.5,1,0],[0.25,1,0],[0,0.75,0],[0,0.5,0],[0,0.25,0]];shape=mxgraph.bpmn.task;whiteSpace=wrap;rectStyle=rounded;size=10;html=1;container=1;expand=0;collapsible=0;bpmnShapeType=call;" parent="1" vertex="1">
          <mxGeometry x="329" y="750" width="121" height="60" as="geometry" />
        </mxCell>
        <mxCell id="8B506kMxZRcGOJMvA6GP-48" value="&lt;font style=&quot;font-size: 9px;&quot;&gt;Get help&lt;/font&gt;" style="points=[[0.25,0,0],[0.5,0,0],[0.75,0,0],[1,0.25,0],[1,0.5,0],[1,0.75,0],[0.75,1,0],[0.5,1,0],[0.25,1,0],[0,0.75,0],[0,0.5,0],[0,0.25,0]];shape=mxgraph.bpmn.task;whiteSpace=wrap;rectStyle=rounded;size=10;html=1;container=1;expand=0;collapsible=0;bpmnShapeType=call;" parent="1" vertex="1">
          <mxGeometry x="195" y="750" width="80" height="60" as="geometry" />
        </mxCell>
        <mxCell id="8B506kMxZRcGOJMvA6GP-49" value="&lt;font style=&quot;font-size: 9px;&quot;&gt;Active Tactile&lt;/font&gt;&lt;font style=&quot;font-size: 9px;&quot;&gt;&amp;nbsp;sensors&lt;/font&gt;" style="points=[[0.25,0,0],[0.5,0,0],[0.75,0,0],[1,0.25,0],[1,0.5,0],[1,0.75,0],[0.75,1,0],[0.5,1,0],[0.25,1,0],[0,0.75,0],[0,0.5,0],[0,0.25,0]];shape=mxgraph.bpmn.task;whiteSpace=wrap;rectStyle=rounded;size=10;html=1;container=1;expand=0;collapsible=0;bpmnShapeType=call;" parent="1" vertex="1">
          <mxGeometry x="47" y="750" width="115" height="60" as="geometry" />
        </mxCell>
        <mxCell id="8B506kMxZRcGOJMvA6GP-50" value="" style="edgeStyle=segmentEdgeStyle;endArrow=classic;html=1;curved=0;rounded=0;endSize=8;startSize=8;entryX=0.5;entryY=0;entryDx=0;entryDy=0;entryPerimeter=0;" parent="1" source="8B506kMxZRcGOJMvA6GP-46" target="8B506kMxZRcGOJMvA6GP-49" edge="1">
          <mxGeometry width="50" height="50" relative="1" as="geometry">
            <mxPoint x="385" y="800" as="sourcePoint" />
            <mxPoint x="435" y="750" as="targetPoint" />
            <Array as="points">
              <mxPoint x="185" y="730" />
              <mxPoint x="105" y="730" />
              <mxPoint x="105" y="750" />
            </Array>
          </mxGeometry>
        </mxCell>
        <mxCell id="8B506kMxZRcGOJMvA6GP-56" value="&lt;font style=&quot;font-size: 6px;&quot;&gt;low risk&lt;/font&gt;" style="edgeLabel;html=1;align=center;verticalAlign=middle;resizable=0;points=[];" parent="8B506kMxZRcGOJMvA6GP-50" vertex="1" connectable="0">
          <mxGeometry x="-0.0678" y="-1" relative="1" as="geometry">
            <mxPoint y="-7" as="offset" />
          </mxGeometry>
        </mxCell>
        <mxCell id="8B506kMxZRcGOJMvA6GP-51" value="" style="edgeStyle=segmentEdgeStyle;endArrow=classic;html=1;curved=0;rounded=0;endSize=8;startSize=8;entryX=0.5;entryY=0;entryDx=0;entryDy=0;entryPerimeter=0;" parent="1" source="8B506kMxZRcGOJMvA6GP-46" target="8B506kMxZRcGOJMvA6GP-47" edge="1">
          <mxGeometry width="50" height="50" relative="1" as="geometry">
            <mxPoint x="385" y="800" as="sourcePoint" />
            <mxPoint x="435" y="750" as="targetPoint" />
            <Array as="points">
              <mxPoint x="285" y="730" />
              <mxPoint x="389" y="730" />
              <mxPoint x="389" y="750" />
            </Array>
          </mxGeometry>
        </mxCell>
        <mxCell id="8B506kMxZRcGOJMvA6GP-58" value="&lt;font style=&quot;font-size: 6px;&quot;&gt;high risk&lt;/font&gt;" style="edgeLabel;html=1;align=center;verticalAlign=middle;resizable=0;points=[];" parent="8B506kMxZRcGOJMvA6GP-51" vertex="1" connectable="0">
          <mxGeometry x="-0.2713" y="3" relative="1" as="geometry">
            <mxPoint x="19" y="-6" as="offset" />
          </mxGeometry>
        </mxCell>
        <mxCell id="8B506kMxZRcGOJMvA6GP-52" value="" style="endArrow=classic;html=1;rounded=0;entryX=0.5;entryY=0;entryDx=0;entryDy=0;entryPerimeter=0;" parent="1" source="8B506kMxZRcGOJMvA6GP-46" target="8B506kMxZRcGOJMvA6GP-48" edge="1">
          <mxGeometry width="50" height="50" relative="1" as="geometry">
            <mxPoint x="385" y="800" as="sourcePoint" />
            <mxPoint x="435" y="750" as="targetPoint" />
          </mxGeometry>
        </mxCell>
        <mxCell id="8B506kMxZRcGOJMvA6GP-57" value="&lt;font style=&quot;font-size: 6px;&quot;&gt;unknown&lt;/font&gt;" style="edgeLabel;html=1;align=center;verticalAlign=middle;resizable=0;points=[];" parent="8B506kMxZRcGOJMvA6GP-52" vertex="1" connectable="0">
          <mxGeometry x="-0.1334" y="3" relative="1" as="geometry">
            <mxPoint x="-26" as="offset" />
          </mxGeometry>
        </mxCell>
        <mxCell id="8B506kMxZRcGOJMvA6GP-53" value="" style="endArrow=classic;html=1;rounded=0;exitX=0.25;exitY=0;exitDx=0;exitDy=0;exitPerimeter=0;entryX=0.5;entryY=1;entryDx=0;entryDy=0;entryPerimeter=0;" parent="1" source="8B506kMxZRcGOJMvA6GP-49" target="8B506kMxZRcGOJMvA6GP-54" edge="1">
          <mxGeometry width="50" height="50" relative="1" as="geometry">
            <mxPoint x="385" y="670" as="sourcePoint" />
            <mxPoint x="75" y="670" as="targetPoint" />
          </mxGeometry>
        </mxCell>
        <mxCell id="8B506kMxZRcGOJMvA6GP-54" value="&lt;font size=&quot;1&quot;&gt;Move the object&lt;/font&gt;" style="points=[[0.25,0,0],[0.5,0,0],[0.75,0,0],[1,0.25,0],[1,0.5,0],[1,0.75,0],[0.75,1,0],[0.5,1,0],[0.25,1,0],[0,0.75,0],[0,0.5,0],[0,0.25,0]];shape=mxgraph.bpmn.task;whiteSpace=wrap;rectStyle=rounded;size=10;html=1;container=1;expand=0;collapsible=0;bpmnShapeType=call;" parent="1" vertex="1">
          <mxGeometry x="30" y="625" width="90" height="60" as="geometry" />
        </mxCell>
        <mxCell id="8B506kMxZRcGOJMvA6GP-55" value="" style="endArrow=classic;html=1;rounded=0;entryX=0;entryY=0.5;entryDx=0;entryDy=0;entryPerimeter=0;exitX=0.5;exitY=0;exitDx=0;exitDy=0;exitPerimeter=0;" parent="1" source="8B506kMxZRcGOJMvA6GP-54" target="8B506kMxZRcGOJMvA6GP-13" edge="1">
          <mxGeometry width="50" height="50" relative="1" as="geometry">
            <mxPoint x="385" y="670" as="sourcePoint" />
            <mxPoint x="435" y="620" as="targetPoint" />
            <Array as="points">
              <mxPoint x="75" y="516" />
            </Array>
          </mxGeometry>
        </mxCell>
        <mxCell id="8B506kMxZRcGOJMvA6GP-59" value="" style="endArrow=classic;html=1;rounded=0;entryX=1;entryY=0.75;entryDx=0;entryDy=0;entryPerimeter=0;exitX=0.75;exitY=0;exitDx=0;exitDy=0;exitPerimeter=0;" parent="1" source="8B506kMxZRcGOJMvA6GP-47" target="8B506kMxZRcGOJMvA6GP-13" edge="1">
          <mxGeometry width="50" height="50" relative="1" as="geometry">
            <mxPoint x="385" y="760" as="sourcePoint" />
            <mxPoint x="435" y="620" as="targetPoint" />
            <Array as="points">
              <mxPoint x="420" y="680" />
              <mxPoint x="305" y="680" />
              <mxPoint x="305" y="531" />
            </Array>
          </mxGeometry>
        </mxCell>
        <mxCell id="8B506kMxZRcGOJMvA6GP-60" value="&lt;font style=&quot;font-size: 6px;&quot;&gt;Do not touch the object&lt;/font&gt;" style="edgeLabel;html=1;align=center;verticalAlign=middle;resizable=0;points=[];" parent="8B506kMxZRcGOJMvA6GP-59" vertex="1" connectable="0">
          <mxGeometry x="-0.3567" relative="1" as="geometry">
            <mxPoint x="-1" y="-18" as="offset" />
          </mxGeometry>
        </mxCell>
        <mxCell id="8B506kMxZRcGOJMvA6GP-62" value="" style="endArrow=classic;html=1;rounded=0;exitX=0.5;exitY=1;exitDx=0;exitDy=0;exitPerimeter=0;entryX=0.5;entryY=0;entryDx=0;entryDy=0;entryPerimeter=0;" parent="1" source="8B506kMxZRcGOJMvA6GP-48" target="8B506kMxZRcGOJMvA6GP-63" edge="1">
          <mxGeometry width="50" height="50" relative="1" as="geometry">
            <mxPoint x="385" y="730" as="sourcePoint" />
            <mxPoint x="235" y="880" as="targetPoint" />
          </mxGeometry>
        </mxCell>
        <mxCell id="8B506kMxZRcGOJMvA6GP-63" value="&lt;font style=&quot;font-size: 9px;&quot;&gt;New cleaning plan&lt;/font&gt;" style="points=[[0.25,0,0],[0.5,0,0],[0.75,0,0],[1,0.25,0],[1,0.5,0],[1,0.75,0],[0.75,1,0],[0.5,1,0],[0.25,1,0],[0,0.75,0],[0,0.5,0],[0,0.25,0]];shape=mxgraph.bpmn.task;whiteSpace=wrap;rectStyle=rounded;size=10;html=1;container=1;expand=0;collapsible=0;bpmnShapeType=call;" parent="1" vertex="1">
          <mxGeometry x="175" y="838" width="120" height="60" as="geometry" />
        </mxCell>
        <mxCell id="8B506kMxZRcGOJMvA6GP-66" value="" style="endArrow=classic;html=1;rounded=0;exitX=0;exitY=0.5;exitDx=0;exitDy=0;exitPerimeter=0;entryX=1;entryY=0.5;entryDx=0;entryDy=0;entryPerimeter=0;" parent="1" source="8B506kMxZRcGOJMvA6GP-63" target="8B506kMxZRcGOJMvA6GP-68" edge="1">
          <mxGeometry width="50" height="50" relative="1" as="geometry">
            <mxPoint x="385" y="720" as="sourcePoint" />
            <mxPoint x="65" y="910" as="targetPoint" />
          </mxGeometry>
        </mxCell>
        <mxCell id="8B506kMxZRcGOJMvA6GP-67" value="&lt;font style=&quot;font-size: 6px;&quot;&gt;follow new plan&lt;/font&gt;" style="edgeLabel;html=1;align=center;verticalAlign=middle;resizable=0;points=[];" parent="8B506kMxZRcGOJMvA6GP-66" vertex="1" connectable="0">
          <mxGeometry x="0.3791" relative="1" as="geometry">
            <mxPoint x="20" y="-9" as="offset" />
          </mxGeometry>
        </mxCell>
        <mxCell id="8B506kMxZRcGOJMvA6GP-68" value="1" style="strokeWidth=2;html=1;shape=mxgraph.flowchart.start_2;whiteSpace=wrap;" parent="1" vertex="1">
          <mxGeometry x="54" y="853" width="30" height="30" as="geometry" />
        </mxCell>
        <mxCell id="8B506kMxZRcGOJMvA6GP-69" value="" style="endArrow=classic;html=1;rounded=0;entryX=0.75;entryY=0;entryDx=0;entryDy=0;entryPerimeter=0;exitX=0.5;exitY=1;exitDx=0;exitDy=0;exitPerimeter=0;" parent="1" source="8B506kMxZRcGOJMvA6GP-70" target="8B506kMxZRcGOJMvA6GP-13" edge="1">
          <mxGeometry width="50" height="50" relative="1" as="geometry">
            <mxPoint x="305" y="500" as="sourcePoint" />
            <mxPoint x="435" y="670" as="targetPoint" />
          </mxGeometry>
        </mxCell>
        <mxCell id="8B506kMxZRcGOJMvA6GP-70" value="1" style="strokeWidth=2;html=1;shape=mxgraph.flowchart.start_2;whiteSpace=wrap;" parent="1" vertex="1">
          <mxGeometry x="242" y="430" width="30" height="30" as="geometry" />
        </mxCell>
        <mxCell id="8B506kMxZRcGOJMvA6GP-71" value="" style="endArrow=classic;html=1;rounded=0;exitX=0;exitY=0.25;exitDx=0;exitDy=0;exitPerimeter=0;entryX=0;entryY=0.5;entryDx=0;entryDy=0;entryPerimeter=0;" parent="1" source="8B506kMxZRcGOJMvA6GP-13" target="8B506kMxZRcGOJMvA6GP-74" edge="1">
          <mxGeometry width="50" height="50" relative="1" as="geometry">
            <mxPoint x="385" y="720" as="sourcePoint" />
            <mxPoint x="155" y="1000" as="targetPoint" />
            <Array as="points">
              <mxPoint x="15" y="500" />
              <mxPoint x="15" y="950" />
            </Array>
          </mxGeometry>
        </mxCell>
        <mxCell id="8B506kMxZRcGOJMvA6GP-73" value="&lt;font style=&quot;font-size: 6px;&quot;&gt;finish&lt;/font&gt;" style="edgeLabel;html=1;align=center;verticalAlign=middle;resizable=0;points=[];" parent="8B506kMxZRcGOJMvA6GP-71" vertex="1" connectable="0">
          <mxGeometry x="-0.6649" y="-3" relative="1" as="geometry">
            <mxPoint y="-7" as="offset" />
          </mxGeometry>
        </mxCell>
        <mxCell id="8B506kMxZRcGOJMvA6GP-74" value="&lt;font style=&quot;font-size: 9px;&quot;&gt;Retrieve&lt;/font&gt;" style="points=[[0.25,0,0],[0.5,0,0],[0.75,0,0],[1,0.25,0],[1,0.5,0],[1,0.75,0],[0.75,1,0],[0.5,1,0],[0.25,1,0],[0,0.75,0],[0,0.5,0],[0,0.25,0]];shape=mxgraph.bpmn.task;whiteSpace=wrap;rectStyle=rounded;size=10;html=1;container=1;expand=0;collapsible=0;bpmnShapeType=call;" parent="1" vertex="1">
          <mxGeometry x="77" y="919" width="80" height="60" as="geometry" />
        </mxCell>
        <mxCell id="8B506kMxZRcGOJMvA6GP-75" value="" style="endArrow=classic;html=1;rounded=0;exitX=1;exitY=0.5;exitDx=0;exitDy=0;exitPerimeter=0;edgeStyle=orthogonalEdgeStyle;" parent="1" source="8B506kMxZRcGOJMvA6GP-74" target="vmy5R8h8QKJuN6lwiHQ0-8" edge="1">
          <mxGeometry width="50" height="50" relative="1" as="geometry">
            <mxPoint x="385" y="1010" as="sourcePoint" />
            <mxPoint x="290" y="1010" as="targetPoint" />
          </mxGeometry>
        </mxCell>
        <mxCell id="8B506kMxZRcGOJMvA6GP-76" value="&lt;font style=&quot;font-size: 9px;&quot;&gt;Stop Dynamic Unit&lt;/font&gt;" style="points=[[0.25,0,0],[0.5,0,0],[0.75,0,0],[1,0.25,0],[1,0.5,0],[1,0.75,0],[0.75,1,0],[0.5,1,0],[0.25,1,0],[0,0.75,0],[0,0.5,0],[0,0.25,0]];shape=mxgraph.bpmn.task;whiteSpace=wrap;rectStyle=rounded;size=10;html=1;container=1;expand=0;collapsible=0;bpmnShapeType=call;" parent="1" vertex="1">
          <mxGeometry x="306" y="1050" width="125" height="60" as="geometry" />
        </mxCell>
        <mxCell id="8B506kMxZRcGOJMvA6GP-77" value="&lt;font style=&quot;font-size: 9px;&quot;&gt;Stop Sensors&lt;/font&gt;" style="points=[[0.25,0,0],[0.5,0,0],[0.75,0,0],[1,0.25,0],[1,0.5,0],[1,0.75,0],[0.75,1,0],[0.5,1,0],[0.25,1,0],[0,0.75,0],[0,0.5,0],[0,0.25,0]];shape=mxgraph.bpmn.task;whiteSpace=wrap;rectStyle=rounded;size=10;html=1;container=1;expand=0;collapsible=0;bpmnShapeType=call;" parent="1" vertex="1">
          <mxGeometry x="209" y="1050" width="80" height="60" as="geometry" />
        </mxCell>
        <mxCell id="8B506kMxZRcGOJMvA6GP-78" value="" style="endArrow=classic;html=1;rounded=0;entryX=0.5;entryY=0;entryDx=0;entryDy=0;entryPerimeter=0;edgeStyle=orthogonalEdgeStyle;" parent="1" source="vmy5R8h8QKJuN6lwiHQ0-8" target="vmy5R8h8QKJuN6lwiHQ0-6" edge="1">
          <mxGeometry width="50" height="50" relative="1" as="geometry">
            <mxPoint x="210" y="1040" as="sourcePoint" />
            <mxPoint x="435" y="770" as="targetPoint" />
          </mxGeometry>
        </mxCell>
        <mxCell id="8B506kMxZRcGOJMvA6GP-79" value="" style="endArrow=classic;html=1;rounded=0;entryX=0.5;entryY=0;entryDx=0;entryDy=0;exitX=0.5;exitY=1;exitDx=0;exitDy=0;exitPerimeter=0;" parent="1" source="8B506kMxZRcGOJMvA6GP-77" target="8B506kMxZRcGOJMvA6GP-80" edge="1">
          <mxGeometry width="50" height="50" relative="1" as="geometry">
            <mxPoint x="61" y="1041" as="sourcePoint" />
            <mxPoint x="111" y="991" as="targetPoint" />
          </mxGeometry>
        </mxCell>
        <mxCell id="8B506kMxZRcGOJMvA6GP-80" value="" style="ellipse;html=1;fillColor=#000000;" parent="1" vertex="1">
          <mxGeometry x="234" y="1130" width="30" height="30" as="geometry" />
        </mxCell>
        <mxCell id="8B506kMxZRcGOJMvA6GP-103" value="&lt;font style=&quot;font-size: 9px;&quot;&gt;Get Help&lt;/font&gt;" style="points=[[0.25,0,0],[0.5,0,0],[0.75,0,0],[1,0.25,0],[1,0.5,0],[1,0.75,0],[0.75,1,0],[0.5,1,0],[0.25,1,0],[0,0.75,0],[0,0.5,0],[0,0.25,0]];shape=mxgraph.bpmn.task;whiteSpace=wrap;rectStyle=rounded;size=10;html=1;container=1;expand=0;collapsible=0;bpmnShapeType=call;" parent="1" vertex="1">
          <mxGeometry x="487" y="670" width="80" height="60" as="geometry" />
        </mxCell>
        <mxCell id="8B506kMxZRcGOJMvA6GP-104" value="&lt;font style=&quot;font-size: 9px;&quot;&gt;Follow new structure&lt;/font&gt;" style="points=[[0.25,0,0],[0.5,0,0],[0.75,0,0],[1,0.25,0],[1,0.5,0],[1,0.75,0],[0.75,1,0],[0.5,1,0],[0.25,1,0],[0,0.75,0],[0,0.5,0],[0,0.25,0]];shape=mxgraph.bpmn.task;whiteSpace=wrap;rectStyle=rounded;size=10;html=1;container=1;expand=0;collapsible=0;bpmnShapeType=call;" parent="1" vertex="1">
          <mxGeometry x="470" y="750" width="114" height="60" as="geometry" />
        </mxCell>
        <mxCell id="8B506kMxZRcGOJMvA6GP-105" value="" style="endArrow=classic;html=1;rounded=0;exitX=0.5;exitY=1;exitDx=0;exitDy=0;exitPerimeter=0;entryX=0.5;entryY=0;entryDx=0;entryDy=0;entryPerimeter=0;" parent="1" source="8B506kMxZRcGOJMvA6GP-103" target="8B506kMxZRcGOJMvA6GP-104" edge="1">
          <mxGeometry width="50" height="50" relative="1" as="geometry">
            <mxPoint x="222" y="771" as="sourcePoint" />
            <mxPoint x="272" y="721" as="targetPoint" />
          </mxGeometry>
        </mxCell>
        <mxCell id="8B506kMxZRcGOJMvA6GP-106" value="" style="endArrow=classic;html=1;rounded=0;exitX=0.5;exitY=1;exitDx=0;exitDy=0;exitPerimeter=0;entryX=0.5;entryY=0;entryDx=0;entryDy=0;entryPerimeter=0;" parent="1" source="8B506kMxZRcGOJMvA6GP-104" target="8B506kMxZRcGOJMvA6GP-107" edge="1">
          <mxGeometry width="50" height="50" relative="1" as="geometry">
            <mxPoint x="222" y="691" as="sourcePoint" />
            <mxPoint x="528" y="837.5" as="targetPoint" />
          </mxGeometry>
        </mxCell>
        <mxCell id="8B506kMxZRcGOJMvA6GP-107" value="2" style="strokeWidth=2;html=1;shape=mxgraph.flowchart.start_2;whiteSpace=wrap;" parent="1" vertex="1">
          <mxGeometry x="512" y="837.5" width="30" height="30" as="geometry" />
        </mxCell>
        <mxCell id="8B506kMxZRcGOJMvA6GP-118" value="" style="endArrow=classic;html=1;rounded=0;exitX=0.5;exitY=1;exitDx=0;exitDy=0;exitPerimeter=0;" parent="1" source="8B506kMxZRcGOJMvA6GP-119" target="vmy5R8h8QKJuN6lwiHQ0-8" edge="1">
          <mxGeometry width="50" height="50" relative="1" as="geometry">
            <mxPoint x="371" y="1021" as="sourcePoint" />
            <mxPoint x="411" y="981" as="targetPoint" />
          </mxGeometry>
        </mxCell>
        <mxCell id="8B506kMxZRcGOJMvA6GP-119" value="4" style="strokeWidth=2;html=1;shape=mxgraph.flowchart.start_2;whiteSpace=wrap;" parent="1" vertex="1">
          <mxGeometry x="275" y="949" width="30" height="30" as="geometry" />
        </mxCell>
        <mxCell id="8B506kMxZRcGOJMvA6GP-120" value="&lt;font style=&quot;&quot;&gt;&lt;font style=&quot;font-size: 9px;&quot;&gt;Active Temp.&lt;/font&gt;&lt;/font&gt;&lt;span style=&quot;font-size: 9px; background-color: initial;&quot;&gt;sensors&lt;/span&gt;&lt;div&gt;&lt;span style=&quot;font-size: 9px; background-color: initial;&quot;&gt;&amp;amp;&lt;/span&gt;&lt;/div&gt;&lt;div&gt;&lt;span style=&quot;font-size: 9px; background-color: initial;&quot;&gt;Microphones&lt;/span&gt;&lt;/div&gt;" style="points=[[0.25,0,0],[0.5,0,0],[0.75,0,0],[1,0.25,0],[1,0.5,0],[1,0.75,0],[0.75,1,0],[0.5,1,0],[0.25,1,0],[0,0.75,0],[0,0.5,0],[0,0.25,0]];shape=mxgraph.bpmn.task;whiteSpace=wrap;rectStyle=rounded;size=10;html=1;container=1;expand=0;collapsible=0;bpmnShapeType=call;" parent="1" vertex="1">
          <mxGeometry x="560" y="486" width="220" height="60" as="geometry" />
        </mxCell>
        <mxCell id="8B506kMxZRcGOJMvA6GP-121" value="" style="endArrow=classic;html=1;rounded=0;entryX=0.5;entryY=0;entryDx=0;entryDy=0;exitX=0.5;exitY=1;exitDx=0;exitDy=0;exitPerimeter=0;entryPerimeter=0;" parent="1" source="8B506kMxZRcGOJMvA6GP-120" target="8B506kMxZRcGOJMvA6GP-125" edge="1">
          <mxGeometry width="50" height="50" relative="1" as="geometry">
            <mxPoint x="504" y="550" as="sourcePoint" />
            <mxPoint x="724" y="516.5" as="targetPoint" />
          </mxGeometry>
        </mxCell>
        <mxCell id="8B506kMxZRcGOJMvA6GP-125" value="&lt;font style=&quot;font-size: 9px;&quot;&gt;Meal preparation&lt;/font&gt;" style="points=[[0.25,0,0],[0.5,0,0],[0.75,0,0],[1,0.25,0],[1,0.5,0],[1,0.75,0],[0.75,1,0],[0.5,1,0],[0.25,1,0],[0,0.75,0],[0,0.5,0],[0,0.25,0]];shape=mxgraph.bpmn.task;whiteSpace=wrap;rectStyle=rounded;size=10;html=1;container=1;expand=0;collapsible=0;bpmnShapeType=call;" parent="1" vertex="1">
          <mxGeometry x="623.5" y="570" width="93" height="60" as="geometry" />
        </mxCell>
        <mxCell id="8B506kMxZRcGOJMvA6GP-126" value="" style="endArrow=classic;html=1;rounded=0;exitX=0;exitY=0.75;exitDx=0;exitDy=0;exitPerimeter=0;entryX=0.5;entryY=0;entryDx=0;entryDy=0;entryPerimeter=0;edgeStyle=orthogonalEdgeStyle;" parent="1" source="8B506kMxZRcGOJMvA6GP-125" target="8B506kMxZRcGOJMvA6GP-103" edge="1">
          <mxGeometry width="50" height="50" relative="1" as="geometry">
            <mxPoint x="734" y="555.5" as="sourcePoint" />
            <mxPoint x="814.5" y="590" as="targetPoint" />
          </mxGeometry>
        </mxCell>
        <mxCell id="8B506kMxZRcGOJMvA6GP-127" value="&lt;font style=&quot;font-size: 6px;&quot;&gt;need Help&lt;/font&gt;" style="edgeLabel;html=1;align=center;verticalAlign=middle;resizable=0;points=[];" parent="8B506kMxZRcGOJMvA6GP-126" vertex="1" connectable="0">
          <mxGeometry x="-0.2303" y="-2" relative="1" as="geometry">
            <mxPoint x="8" y="13" as="offset" />
          </mxGeometry>
        </mxCell>
        <mxCell id="8B506kMxZRcGOJMvA6GP-128" value="2" style="strokeWidth=2;html=1;shape=mxgraph.flowchart.start_2;whiteSpace=wrap;" parent="1" vertex="1">
          <mxGeometry x="542" y="570" width="30" height="30" as="geometry" />
        </mxCell>
        <mxCell id="8B506kMxZRcGOJMvA6GP-129" value="" style="endArrow=classic;html=1;rounded=0;exitX=1;exitY=0.5;exitDx=0;exitDy=0;exitPerimeter=0;entryX=0;entryY=0.25;entryDx=0;entryDy=0;entryPerimeter=0;" parent="1" source="8B506kMxZRcGOJMvA6GP-128" target="8B506kMxZRcGOJMvA6GP-125" edge="1">
          <mxGeometry width="50" height="50" relative="1" as="geometry">
            <mxPoint x="734" y="485.5" as="sourcePoint" />
            <mxPoint x="784" y="435.5" as="targetPoint" />
          </mxGeometry>
        </mxCell>
        <mxCell id="8B506kMxZRcGOJMvA6GP-130" value="4" style="strokeWidth=2;html=1;shape=mxgraph.flowchart.start_2;whiteSpace=wrap;" parent="1" vertex="1">
          <mxGeometry x="769" y="601" width="30" height="30" as="geometry" />
        </mxCell>
        <mxCell id="8B506kMxZRcGOJMvA6GP-131" value="" style="endArrow=classic;html=1;rounded=0;exitX=1;exitY=0.75;exitDx=0;exitDy=0;exitPerimeter=0;entryX=0;entryY=0.5;entryDx=0;entryDy=0;entryPerimeter=0;" parent="1" source="8B506kMxZRcGOJMvA6GP-125" target="8B506kMxZRcGOJMvA6GP-130" edge="1">
          <mxGeometry width="50" height="50" relative="1" as="geometry">
            <mxPoint x="734" y="655.5" as="sourcePoint" />
            <mxPoint x="784" y="605.5" as="targetPoint" />
            <Array as="points" />
          </mxGeometry>
        </mxCell>
        <mxCell id="8B506kMxZRcGOJMvA6GP-132" value="&lt;font style=&quot;font-size: 6px;&quot;&gt;finish&lt;/font&gt;" style="edgeLabel;html=1;align=center;verticalAlign=middle;resizable=0;points=[];" parent="8B506kMxZRcGOJMvA6GP-131" vertex="1" connectable="0">
          <mxGeometry x="0.0444" relative="1" as="geometry">
            <mxPoint y="-10" as="offset" />
          </mxGeometry>
        </mxCell>
        <mxCell id="vmy5R8h8QKJuN6lwiHQ0-1" value="&lt;font style=&quot;font-size: 9px;&quot;&gt;Active Dynamic&lt;/font&gt;&lt;font style=&quot;font-size: 9px;&quot;&gt; unit&lt;/font&gt;" style="points=[[0.25,0,0],[0.5,0,0],[0.75,0,0],[1,0.25,0],[1,0.5,0],[1,0.75,0],[0.75,1,0],[0.5,1,0],[0.25,1,0],[0,0.75,0],[0,0.5,0],[0,0.25,0]];shape=mxgraph.bpmn.task;whiteSpace=wrap;rectStyle=rounded;size=10;html=1;container=1;expand=0;collapsible=0;bpmnShapeType=call;" vertex="1" parent="1">
          <mxGeometry x="135" y="260" width="125" height="60" as="geometry" />
        </mxCell>
        <mxCell id="vmy5R8h8QKJuN6lwiHQ0-2" value="&lt;font size=&quot;1&quot;&gt;Navigation&lt;/font&gt;" style="points=[[0.25,0,0],[0.5,0,0],[0.75,0,0],[1,0.25,0],[1,0.5,0],[1,0.75,0],[0.75,1,0],[0.5,1,0],[0.25,1,0],[0,0.75,0],[0,0.5,0],[0,0.25,0]];shape=mxgraph.bpmn.task;whiteSpace=wrap;rectStyle=rounded;size=10;html=1;container=1;expand=0;collapsible=0;bpmnShapeType=call;" vertex="1" parent="1">
          <mxGeometry x="490" y="260" width="125" height="60" as="geometry" />
        </mxCell>
        <mxCell id="vmy5R8h8QKJuN6lwiHQ0-3" value="" style="endArrow=classic;html=1;rounded=0;exitX=0.5;exitY=1;exitDx=0;exitDy=0;exitPerimeter=0;entryX=0.5;entryY=0;entryDx=0;entryDy=0;entryPerimeter=0;edgeStyle=orthogonalEdgeStyle;" edge="1" parent="1" source="8B506kMxZRcGOJMvA6GP-6" target="vmy5R8h8QKJuN6lwiHQ0-1">
          <mxGeometry width="50" height="50" relative="1" as="geometry">
            <mxPoint x="385" y="259" as="sourcePoint" />
            <mxPoint x="386" y="300" as="targetPoint" />
          </mxGeometry>
        </mxCell>
        <mxCell id="vmy5R8h8QKJuN6lwiHQ0-4" value="" style="endArrow=classic;html=1;rounded=0;exitX=0.5;exitY=1;exitDx=0;exitDy=0;exitPerimeter=0;entryX=0.5;entryY=0;entryDx=0;entryDy=0;entryPerimeter=0;edgeStyle=orthogonalEdgeStyle;" edge="1" parent="1" source="8B506kMxZRcGOJMvA6GP-6" target="vmy5R8h8QKJuN6lwiHQ0-2">
          <mxGeometry width="50" height="50" relative="1" as="geometry">
            <mxPoint x="395" y="269" as="sourcePoint" />
            <mxPoint x="396" y="310" as="targetPoint" />
          </mxGeometry>
        </mxCell>
        <mxCell id="vmy5R8h8QKJuN6lwiHQ0-5" value="&lt;font style=&quot;font-size: 9px;&quot;&gt;3D Mapping&lt;/font&gt;" style="points=[[0.25,0,0],[0.5,0,0],[0.75,0,0],[1,0.25,0],[1,0.5,0],[1,0.75,0],[0.75,1,0],[0.5,1,0],[0.25,1,0],[0,0.75,0],[0,0.5,0],[0,0.25,0]];shape=mxgraph.bpmn.task;whiteSpace=wrap;rectStyle=rounded;size=10;html=1;container=1;expand=0;collapsible=0;bpmnShapeType=call;" vertex="1" parent="1">
          <mxGeometry x="240" y="350" width="270" height="60" as="geometry" />
        </mxCell>
        <mxCell id="vmy5R8h8QKJuN6lwiHQ0-6" value="&lt;font style=&quot;font-size: 9px;&quot;&gt;Stop navigation unit&lt;/font&gt;" style="points=[[0.25,0,0],[0.5,0,0],[0.75,0,0],[1,0.25,0],[1,0.5,0],[1,0.75,0],[0.75,1,0],[0.5,1,0],[0.25,1,0],[0,0.75,0],[0,0.5,0],[0,0.25,0]];shape=mxgraph.bpmn.task;whiteSpace=wrap;rectStyle=rounded;size=10;html=1;container=1;expand=0;collapsible=0;bpmnShapeType=call;" vertex="1" parent="1">
          <mxGeometry x="44" y="1050" width="125" height="60" as="geometry" />
        </mxCell>
        <mxCell id="vmy5R8h8QKJuN6lwiHQ0-8" value="" style="line;strokeWidth=4;html=1;perimeter=backbonePerimeter;points=[];outlineConnect=0;rotation=0;" vertex="1" parent="1">
          <mxGeometry x="169" y="1015" width="160" height="10" as="geometry" />
        </mxCell>
        <mxCell id="vmy5R8h8QKJuN6lwiHQ0-9" value="" style="endArrow=classic;html=1;rounded=0;edgeStyle=orthogonalEdgeStyle;" edge="1" parent="1" source="vmy5R8h8QKJuN6lwiHQ0-8" target="8B506kMxZRcGOJMvA6GP-76">
          <mxGeometry width="50" height="50" relative="1" as="geometry">
            <mxPoint x="330" y="980" as="sourcePoint" />
            <mxPoint x="379" y="1060" as="targetPoint" />
          </mxGeometry>
        </mxCell>
        <mxCell id="vmy5R8h8QKJuN6lwiHQ0-11" value="" style="endArrow=classic;html=1;rounded=0;entryX=0.5;entryY=0;entryDx=0;entryDy=0;entryPerimeter=0;" edge="1" parent="1" source="vmy5R8h8QKJuN6lwiHQ0-8" target="8B506kMxZRcGOJMvA6GP-77">
          <mxGeometry width="50" height="50" relative="1" as="geometry">
            <mxPoint x="259" y="1031" as="sourcePoint" />
            <mxPoint x="117" y="1060" as="targetPoint" />
          </mxGeometry>
        </mxCell>
        <mxCell id="vmy5R8h8QKJuN6lwiHQ0-12" value="&lt;font style=&quot;font-size: 9px;&quot;&gt;Mixing&lt;/font&gt;" style="points=[[0.25,0,0],[0.5,0,0],[0.75,0,0],[1,0.25,0],[1,0.5,0],[1,0.75,0],[0.75,1,0],[0.5,1,0],[0.25,1,0],[0,0.75,0],[0,0.5,0],[0,0.25,0]];shape=mxgraph.bpmn.task;whiteSpace=wrap;rectStyle=rounded;size=10;html=1;container=1;expand=0;collapsible=0;bpmnShapeType=call;" vertex="1" parent="1">
          <mxGeometry x="615" y="760" width="60" height="60" as="geometry" />
        </mxCell>
        <mxCell id="vmy5R8h8QKJuN6lwiHQ0-13" value="&lt;font size=&quot;1&quot;&gt;Cutting&lt;/font&gt;" style="points=[[0.25,0,0],[0.5,0,0],[0.75,0,0],[1,0.25,0],[1,0.5,0],[1,0.75,0],[0.75,1,0],[0.5,1,0],[0.25,1,0],[0,0.75,0],[0,0.5,0],[0,0.25,0]];shape=mxgraph.bpmn.task;whiteSpace=wrap;rectStyle=rounded;size=10;html=1;container=1;expand=0;collapsible=0;bpmnShapeType=call;" vertex="1" parent="1">
          <mxGeometry x="688" y="760" width="60" height="60" as="geometry" />
        </mxCell>
        <mxCell id="vmy5R8h8QKJuN6lwiHQ0-14" value="&lt;font style=&quot;font-size: 9px;&quot;&gt;Cooking&lt;/font&gt;" style="points=[[0.25,0,0],[0.5,0,0],[0.75,0,0],[1,0.25,0],[1,0.5,0],[1,0.75,0],[0.75,1,0],[0.5,1,0],[0.25,1,0],[0,0.75,0],[0,0.5,0],[0,0.25,0]];shape=mxgraph.bpmn.task;whiteSpace=wrap;rectStyle=rounded;size=10;html=1;container=1;expand=0;collapsible=0;bpmnShapeType=call;" vertex="1" parent="1">
          <mxGeometry x="760" y="760" width="60" height="60" as="geometry" />
        </mxCell>
        <mxCell id="vmy5R8h8QKJuN6lwiHQ0-15" value="" style="line;strokeWidth=4;html=1;perimeter=backbonePerimeter;points=[];outlineConnect=0;" vertex="1" parent="1">
          <mxGeometry x="637" y="720" width="160" height="10" as="geometry" />
        </mxCell>
        <mxCell id="vmy5R8h8QKJuN6lwiHQ0-16" value="" style="endArrow=classic;html=1;rounded=0;exitX=0.5;exitY=1;exitDx=0;exitDy=0;exitPerimeter=0;edgeStyle=orthogonalEdgeStyle;" edge="1" parent="1" source="8B506kMxZRcGOJMvA6GP-125" target="vmy5R8h8QKJuN6lwiHQ0-15">
          <mxGeometry width="50" height="50" relative="1" as="geometry">
            <mxPoint x="440" y="780" as="sourcePoint" />
            <mxPoint x="700" y="680" as="targetPoint" />
          </mxGeometry>
        </mxCell>
        <mxCell id="vmy5R8h8QKJuN6lwiHQ0-17" value="" style="endArrow=classic;html=1;rounded=0;entryX=0.5;entryY=0;entryDx=0;entryDy=0;entryPerimeter=0;" edge="1" parent="1" source="vmy5R8h8QKJuN6lwiHQ0-15" target="vmy5R8h8QKJuN6lwiHQ0-12">
          <mxGeometry width="50" height="50" relative="1" as="geometry">
            <mxPoint x="620" y="740" as="sourcePoint" />
            <mxPoint x="490" y="730" as="targetPoint" />
          </mxGeometry>
        </mxCell>
        <mxCell id="vmy5R8h8QKJuN6lwiHQ0-18" value="" style="endArrow=classic;html=1;rounded=0;entryX=0.5;entryY=0;entryDx=0;entryDy=0;entryPerimeter=0;" edge="1" parent="1" source="vmy5R8h8QKJuN6lwiHQ0-15" target="vmy5R8h8QKJuN6lwiHQ0-13">
          <mxGeometry width="50" height="50" relative="1" as="geometry">
            <mxPoint x="655" y="736" as="sourcePoint" />
            <mxPoint x="655" y="770" as="targetPoint" />
          </mxGeometry>
        </mxCell>
        <mxCell id="vmy5R8h8QKJuN6lwiHQ0-19" value="" style="endArrow=classic;html=1;rounded=0;entryX=0.5;entryY=0;entryDx=0;entryDy=0;entryPerimeter=0;" edge="1" parent="1" source="vmy5R8h8QKJuN6lwiHQ0-15" target="vmy5R8h8QKJuN6lwiHQ0-14">
          <mxGeometry width="50" height="50" relative="1" as="geometry">
            <mxPoint x="665" y="746" as="sourcePoint" />
            <mxPoint x="665" y="780" as="targetPoint" />
          </mxGeometry>
        </mxCell>
        <mxCell id="vmy5R8h8QKJuN6lwiHQ0-20" value="" style="endArrow=classic;html=1;rounded=0;exitX=0.5;exitY=1;exitDx=0;exitDy=0;exitPerimeter=0;" edge="1" parent="1" source="vmy5R8h8QKJuN6lwiHQ0-12" target="vmy5R8h8QKJuN6lwiHQ0-25">
          <mxGeometry width="50" height="50" relative="1" as="geometry">
            <mxPoint x="655" y="736" as="sourcePoint" />
            <mxPoint x="719.9999999999998" y="865.5" as="targetPoint" />
          </mxGeometry>
        </mxCell>
        <mxCell id="vmy5R8h8QKJuN6lwiHQ0-23" value="" style="endArrow=classic;html=1;rounded=0;exitX=0.5;exitY=1;exitDx=0;exitDy=0;exitPerimeter=0;" edge="1" parent="1" source="vmy5R8h8QKJuN6lwiHQ0-14" target="vmy5R8h8QKJuN6lwiHQ0-25">
          <mxGeometry width="50" height="50" relative="1" as="geometry">
            <mxPoint x="655" y="830" as="sourcePoint" />
            <mxPoint x="719.9999999999998" y="865.5" as="targetPoint" />
          </mxGeometry>
        </mxCell>
        <mxCell id="vmy5R8h8QKJuN6lwiHQ0-24" value="3" style="strokeWidth=2;html=1;shape=mxgraph.flowchart.start_2;whiteSpace=wrap;" vertex="1" parent="1">
          <mxGeometry x="703" y="898" width="30" height="30" as="geometry" />
        </mxCell>
        <mxCell id="vmy5R8h8QKJuN6lwiHQ0-25" value="" style="line;strokeWidth=4;html=1;perimeter=backbonePerimeter;points=[];outlineConnect=0;" vertex="1" parent="1">
          <mxGeometry x="638" y="866" width="160" height="10" as="geometry" />
        </mxCell>
        <mxCell id="vmy5R8h8QKJuN6lwiHQ0-26" value="" style="endArrow=classic;html=1;rounded=0;exitX=0.5;exitY=1;exitDx=0;exitDy=0;exitPerimeter=0;" edge="1" parent="1" source="vmy5R8h8QKJuN6lwiHQ0-13" target="vmy5R8h8QKJuN6lwiHQ0-25">
          <mxGeometry width="50" height="50" relative="1" as="geometry">
            <mxPoint x="800" y="830" as="sourcePoint" />
            <mxPoint x="800" y="879" as="targetPoint" />
          </mxGeometry>
        </mxCell>
        <mxCell id="vmy5R8h8QKJuN6lwiHQ0-27" value="" style="endArrow=classic;html=1;rounded=0;entryX=0.5;entryY=0;entryDx=0;entryDy=0;entryPerimeter=0;" edge="1" parent="1" source="vmy5R8h8QKJuN6lwiHQ0-25" target="vmy5R8h8QKJuN6lwiHQ0-24">
          <mxGeometry width="50" height="50" relative="1" as="geometry">
            <mxPoint x="810" y="840" as="sourcePoint" />
            <mxPoint x="810" y="889" as="targetPoint" />
          </mxGeometry>
        </mxCell>
        <mxCell id="vmy5R8h8QKJuN6lwiHQ0-28" value="3" style="strokeWidth=2;html=1;shape=mxgraph.flowchart.start_2;whiteSpace=wrap;" vertex="1" parent="1">
          <mxGeometry x="769" y="570" width="30" height="30" as="geometry" />
        </mxCell>
        <mxCell id="vmy5R8h8QKJuN6lwiHQ0-29" value="" style="endArrow=classic;html=1;rounded=0;exitX=0;exitY=0.5;exitDx=0;exitDy=0;exitPerimeter=0;entryX=1;entryY=0.25;entryDx=0;entryDy=0;entryPerimeter=0;" edge="1" parent="1" source="vmy5R8h8QKJuN6lwiHQ0-28" target="8B506kMxZRcGOJMvA6GP-125">
          <mxGeometry width="50" height="50" relative="1" as="geometry">
            <mxPoint x="440" y="700" as="sourcePoint" />
            <mxPoint x="490" y="650" as="targetPoint" />
          </mxGeometry>
        </mxCell>
      </root>
    </mxGraphModel>
  </diagram>
</mxfile>
